<?xml version="1.0" encoding="utf-8"?>
<!-- Generator: Adobe Illustrator 16.0.4, SVG Export Plug-In . SVG Version: 6.00 Build 0)  -->
<!DOCTYPE svg PUBLIC "-//W3C//DTD SVG 1.1//EN" "http://www.w3.org/Graphics/SVG/1.1/DTD/svg11.dtd">
<svg version="1.1" id="Layer_1" xmlns="http://www.w3.org/2000/svg" xmlns:xlink="http://www.w3.org/1999/xlink" x="0px" y="0px"
	 width="160.207px" height="31.54px" viewBox="0 0 160.207 31.54" enable-background="new 0 0 160.207 31.54" xml:space="preserve">
<g>
	<path fill="#FFFFFF" d="M17.143,17.473c0,4.799-2.4,6.335-8.639,6.335c-2.592,0-5.184-0.224-8-0.96v-5.695h2.208l0.544,3.68
		c1.888,0.448,3.616,0.607,5.343,0.607c4.768,0,5.728-1.023,5.728-3.52c0-3.136-0.576-3.104-7.167-4.352
		c-5.151-0.96-6.655-2.304-6.655-5.952c0-4.543,2.432-6.08,8.383-6.08c2.56,0,5.12,0.288,7.744,0.832v5.6h-2.112l-0.512-3.552
		c-1.824-0.384-3.583-0.512-5.248-0.512c-4.512,0-5.439,1.024-5.439,3.231c0,3.008,0.896,3.008,7.391,4.256
		C15.575,12.321,17.143,13.153,17.143,17.473z"/>
	<path fill="#FFFFFF" d="M22.135,18.336V9.729H19.64V7.938l2.496-0.448l0.96-4.64h1.728v4.64l5.472,0.032v2.24l-5.472-0.032v8.607
		c0,2.496,0.736,3.104,3.104,3.168c1.12,0.032,1.92-0.064,2.688-0.224v2.239c-0.896,0.225-1.92,0.32-3.232,0.288
		C23.703,23.712,22.135,22.208,22.135,18.336z"/>
	<path fill="#FFFFFF" d="M49.143,15.521c0,6.239-3.584,8.479-8.127,8.479c-4.544,0-8.127-2.24-8.127-8.479
		c0-6.24,3.616-8.479,8.127-8.479S49.143,9.281,49.143,15.521z M35.704,15.521c0,4.831,1.632,6.176,5.312,6.176
		s5.312-1.345,5.312-6.176c0-4.832-1.632-6.176-5.312-6.176S35.704,10.689,35.704,15.521z"/>
	<path fill="#FFFFFF" d="M65.782,9.729c0,1.824-1.12,2.592-2.943,2.592l-1.28-2.88c-1.728,0.448-3.487,1.248-4.768,2.08v9.312
		l2.976,0.96v1.76h-7.839v-1.76l2.176-0.96V10.209l-2.176-0.896V7.489h3.552l1.216,1.92c2.144-1.568,4.415-2.432,6.399-2.432
		C65.015,6.978,65.782,7.905,65.782,9.729z"/>
	<path fill="#FFFFFF" d="M86.646,7.489v1.792l-2.624,0.896l-7.071,15.774c-1.567,3.521-3.359,4.769-8.096,4.769h-0.64v-2.368
		c0.8,0.063,1.6,0.096,2.336,0.096c2.208,0,3.071-0.448,5.119-4.863l-6.144-13.407l-2.623-0.896V7.489h8.159v1.792l-2.592,0.864
		l4.607,10.335l4.544-10.335l-2.592-0.864V7.489H86.646z"/>
	<path fill="#FFFFFF" d="M104.854,15.585c0,6.463-2.208,8.288-6.367,8.288c-2.656,0-4.607-0.832-6.367-2.624l-0.832,2.304h-1.632
		V3.554L87.48,2.658V0.834h4.863v7.967c2.144-1.28,3.936-1.76,5.855-1.76C102.231,7.042,104.854,9.281,104.854,15.585z
		 M102.039,15.841c0-4.256-1.184-6.463-4.479-6.463c-1.664,0-3.168,0.576-5.216,1.312v8.768c1.696,1.344,3.487,2.08,5.6,2.08
		C100.728,21.537,102.039,20.321,102.039,15.841z"/>
	<path fill="#FFFFFF" d="M124.727,21.792v1.76h-3.808l-0.832-2.304c-1.76,1.792-3.712,2.624-6.239,2.624
		c-4,0-6.016-1.44-6.016-5.024c0-3.743,2.24-5.343,7.424-5.343c2.207,0,3.775,0.48,4.607,0.928v-1.248
		c0-2.848-0.832-3.84-4.416-3.84c-2.367,0-4.544,0.288-6.72,0.768V7.81c2.08-0.448,4.353-0.768,6.784-0.768
		c6.207,0,7.039,1.888,7.039,5.567v8.224L124.727,21.792z M114.296,21.569c2.111,0,4.031-0.832,5.567-2.112v-3.2
		c-1.344-0.384-3.04-0.512-4.32-0.512c-3.871,0-4.896,1.023-4.896,2.912C110.647,20.672,111.447,21.569,114.296,21.569z"/>
	<path fill="#FFFFFF" d="M141.398,19.008c0,3.456-1.504,4.992-7.615,4.992c-2.112,0-3.808-0.192-6.464-0.641v-4.607h1.92l0.928,2.72
		c1.312,0.225,2.272,0.288,3.712,0.288c3.936,0,4.704-0.544,4.704-2.368c0-2.176-1.44-1.919-5.952-2.751
		c-4.352-0.8-5.503-1.664-5.503-4.8c0-3.36,1.504-4.8,7.104-4.8c2.048,0,3.936,0.192,6.591,0.64v4.448h-1.855l-0.864-2.496
		c-1.344-0.224-2.432-0.352-3.999-0.352c-3.328,0-4.16,0.608-4.16,2.304c0,2.016,1.216,1.952,6.304,2.88
		C140.662,15.265,141.398,16.257,141.398,19.008z"/>
	<path fill="#FFFFFF" d="M159.351,15.105v1.28h-12.543c0.319,4.255,1.888,5.312,5.919,5.312c1.889,0,3.68-0.16,6.016-0.736v2.304
		c-1.6,0.416-3.999,0.736-6.079,0.736c-5.344,0-8.672-1.984-8.672-8.479c0-6.016,3.393-8.479,8.032-8.479
		C156.119,7.042,159.351,9.505,159.351,15.105z M146.84,14.113h9.663c-0.256-3.104-1.664-4.768-4.64-4.768
		C148.535,9.345,147.127,10.753,146.84,14.113z"/>
</g>
</svg>
