<?xml version="1.0" encoding="utf-8"?>
<!-- Generator: Adobe Illustrator 16.0.4, SVG Export Plug-In . SVG Version: 6.00 Build 0)  -->
<!DOCTYPE svg PUBLIC "-//W3C//DTD SVG 1.1//EN" "http://www.w3.org/Graphics/SVG/1.1/DTD/svg11.dtd">
<svg version="1.1" id="Layer_1" xmlns="http://www.w3.org/2000/svg" xmlns:xlink="http://www.w3.org/1999/xlink" x="0px" y="0px"
	 width="111.414px" height="31.54px" viewBox="0 0 111.414 31.54" enable-background="new 0 0 111.414 31.54" xml:space="preserve">
<g>
	<path fill="#FFFFFF" d="M0,21.884l2.473-1.035V3.875L0,2.907V1.002h13.599c2.026,0,3.525,0.485,4.494,1.454
		s1.454,2.333,1.454,4.093c0,1.537-0.318,2.779-0.953,3.726c-0.635,0.947-1.543,1.576-2.723,1.888
		c1.247,0.201,2.227,0.763,2.939,1.688s1.07,2.255,1.07,3.993c0,1.938-0.49,3.403-1.471,4.394c-0.98,0.991-2.428,1.486-4.344,1.486
		H0V21.884z M12.964,11.092c1.292,0,2.21-0.295,2.757-0.885c0.545-0.59,0.818-1.576,0.818-2.957c0-1.358-0.256-2.339-0.769-2.94
		c-0.513-0.602-1.358-0.902-2.539-0.902H5.346v7.685H12.964z M13.498,21.316c1.182,0,2.039-0.306,2.573-0.919
		c0.534-0.612,0.802-1.609,0.802-2.99c0-1.403-0.279-2.406-0.835-3.007c-0.558-0.602-1.493-0.902-2.807-0.902H5.346v7.818H13.498z"
		/>
	<path fill="#FFFFFF" d="M41.822,21.817v1.904h-3.709l-0.869-1.369c-1.292,0.646-2.488,1.113-3.592,1.402
		c-1.103,0.29-2.222,0.436-3.357,0.436c-1.426,0-2.545-0.218-3.357-0.652c-0.814-0.434-1.398-1.124-1.755-2.071
		c-0.356-0.946-0.534-2.222-0.534-3.825V9.79l-2.272-1.002V6.949h5.079v11.06c0,1.314,0.316,2.267,0.951,2.856
		c0.636,0.591,1.565,0.886,2.791,0.886c0.779,0,1.541-0.101,2.288-0.301c0.746-0.201,1.832-0.557,3.258-1.069V9.723l-2.272-0.936
		V6.949h5.079v13.933L41.822,21.817z"/>
	<path fill="#FFFFFF" d="M61.926,21.884v1.838h-3.977l-0.869-2.405c-0.936,0.936-1.932,1.626-2.99,2.071s-2.277,0.668-3.658,0.668
		c-1.516,0-2.757-0.262-3.726-0.785c-0.969-0.522-1.698-1.414-2.188-2.672c-0.49-1.259-0.734-2.99-0.734-5.196
		c0-3.141,0.601-5.413,1.804-6.816c1.202-1.403,2.917-2.105,5.146-2.105c1.023,0,2.026,0.146,3.007,0.435
		c0.979,0.29,2.016,0.757,3.107,1.403V2.84l-2.272-0.936V0h5.079v20.882L61.926,21.884z M47.174,19.278
		c0.301,0.869,0.763,1.477,1.387,1.82c0.623,0.346,1.437,0.519,2.439,0.519c2.07,0,4.02-0.724,5.847-2.172v-9.155
		c-1.403-0.512-2.468-0.869-3.19-1.069c-0.725-0.2-1.477-0.3-2.256-0.3c-1.67,0-2.868,0.551-3.592,1.654
		c-0.725,1.103-1.086,2.801-1.086,5.095C46.723,17.207,46.873,18.409,47.174,19.278z"/>
	<path fill="#FFFFFF" d="M81.033,8.854l-2.506,0.802c0.445,0.847,0.668,1.838,0.668,2.974c0,1.983-0.635,3.458-1.904,4.427
		c-1.27,0.969-3.063,1.453-5.38,1.453c-1.849,0-3.341-0.289-4.477-0.868c-0.535,0.445-0.802,1.014-0.802,1.703
		c0,0.625,0.238,1.075,0.718,1.354c0.479,0.279,1.286,0.418,2.423,0.418h6.147c1.804,0,3.107,0.362,3.909,1.086
		c0.802,0.725,1.203,1.854,1.203,3.391c0,2.049-0.702,3.553-2.105,4.512c-1.403,0.957-3.608,1.436-6.615,1.436
		c-2.562,0-4.64-0.406-6.231-1.219c-1.593-0.813-2.389-2.133-2.389-3.959c0-0.848,0.205-1.566,0.618-2.156
		c0.411-0.59,1.041-1.019,1.888-1.285c-1.337-0.557-2.005-1.593-2.005-3.107c0-1.426,0.635-2.451,1.904-3.074
		c-1.047-1.002-1.57-2.395-1.57-4.177c0-2.004,0.64-3.519,1.921-4.544c1.281-1.024,3.068-1.537,5.363-1.537
		c1.225,0,2.339,0.156,3.341,0.468h5.881V8.854z M66.883,24.307c-0.39,0.39-0.585,0.964-0.585,1.721c0,1.136,0.474,1.966,1.42,2.489
		c0.947,0.523,2.534,0.785,4.762,0.785c1.559,0,2.751-0.105,3.575-0.317c0.823-0.212,1.397-0.546,1.721-1.003
		c0.322-0.456,0.484-1.085,0.484-1.887c0-0.892-0.184-1.51-0.552-1.854c-0.367-0.346-1.041-0.519-2.021-0.519h-7.083
		C67.846,23.722,67.272,23.917,66.883,24.307z M74.668,15.937c0.656-0.267,1.107-0.673,1.354-1.219
		c0.244-0.545,0.367-1.287,0.367-2.222s-0.123-1.676-0.367-2.222c-0.246-0.545-0.697-0.952-1.354-1.22
		c-0.657-0.267-1.599-0.401-2.823-0.401c-1.226,0-2.167,0.14-2.823,0.418c-0.657,0.279-1.108,0.69-1.354,1.236
		c-0.245,0.546-0.367,1.287-0.367,2.222s0.122,1.67,0.367,2.205s0.69,0.936,1.337,1.203c0.646,0.268,1.592,0.402,2.84,0.402
		C73.069,16.339,74.011,16.205,74.668,15.937z"/>
	<path fill="#FFFFFF" d="M96.359,8.604c1.414,1.415,2.121,3.514,2.121,6.298v1.336H85.384c0.11,1.493,0.384,2.634,0.818,3.425
		s1.069,1.342,1.904,1.653c0.835,0.312,1.988,0.468,3.458,0.468c2.116,0,4.21-0.256,6.281-0.769v2.405
		c-0.868,0.224-1.882,0.406-3.04,0.552c-1.158,0.145-2.261,0.218-3.308,0.218c-2.963,0-5.213-0.669-6.749-2.006
		c-1.537-1.336-2.306-3.619-2.306-6.849c0-3.007,0.757-5.234,2.271-6.683c1.515-1.448,3.553-2.172,6.114-2.172
		C93.102,6.481,94.944,7.189,96.359,8.604z M86.854,10.057c-0.802,0.78-1.281,2.05-1.437,3.809h10.09
		c-0.134-1.648-0.59-2.89-1.369-3.726c-0.78-0.835-1.938-1.253-3.476-1.253C88.925,8.887,87.655,9.277,86.854,10.057z"/>
	<path fill="#FFFFFF" d="M103.946,22.687c-0.925-0.869-1.387-2.339-1.387-4.41V9.288h-2.605V7.417l2.605-0.468l1.003-4.845h1.804
		v4.845l5.714,0.034v2.339l-5.714-0.034v8.988c0,0.913,0.111,1.604,0.334,2.071s0.59,0.791,1.103,0.969
		c0.513,0.179,1.259,0.268,2.239,0.268c0.757,0,1.548-0.078,2.372-0.233v2.338c-0.802,0.201-1.76,0.301-2.874,0.301
		C106.402,23.989,104.87,23.556,103.946,22.687z"/>
</g>
</svg>
