<?xml version="1.0" encoding="utf-8"?>
<!-- Generator: Adobe Illustrator 16.0.4, SVG Export Plug-In . SVG Version: 6.00 Build 0)  -->
<!DOCTYPE svg PUBLIC "-//W3C//DTD SVG 1.1//EN" "http://www.w3.org/Graphics/SVG/1.1/DTD/svg11.dtd">
<svg version="1.1" id="Layer_1" xmlns="http://www.w3.org/2000/svg" xmlns:xlink="http://www.w3.org/1999/xlink" x="0px" y="0px"
	 width="180px" height="60px" viewBox="60 20 180 60" enable-background="new 60 20 180 60" xml:space="preserve">
<g>
	<path d="M97.419,56.973c-2.244,4.891-6.163,7.338-11.757,7.338c-4.46,0-8.015-1.283-10.663-3.852
		c-2.65-2.568-3.974-5.918-3.974-10.055c0-3.54,1.217-6.528,3.649-8.961c2.108-2.107,4.865-3.553,8.271-4.338l0.202,0.163
		c-1.784,1.243-3.217,2.838-4.297,4.784c-1.325,2.351-1.986,5-1.986,7.946c0,3.108,0.848,5.515,2.546,7.216
		c1.75,1.785,4.296,2.678,7.637,2.678c0.997,0,1.778-0.055,2.345-0.164V37.957c-1.537-0.081-3.627-0.567-6.269-1.459
		c-2.536-0.864-4.207-1.297-5.016-1.297c-3.128,0-4.732,1.5-4.813,4.5h-0.323c-0.594-1.081-0.89-2.163-0.89-3.244
		c0-1.892,0.606-3.379,1.824-4.459c1.216-1.082,2.932-1.622,5.148-1.622c1.567,0,3.784,0.514,6.648,1.541
		c2.864,1.028,4.784,1.54,5.758,1.54c1.729,0,2.593-0.54,2.593-1.622c0-0.945-0.512-1.418-1.539-1.418
		c-0.243,0-0.608,0.067-1.095,0.202l0.324-0.689c0.405-0.08,0.756-0.121,1.055-0.121c0.999,0,1.823,0.283,2.473,0.852
		c0.756,0.648,1.135,1.595,1.135,2.838c0,1.378-0.453,2.487-1.357,3.324c-0.907,0.838-2.021,1.257-3.345,1.257
		c-0.839,0-1.393,0-1.663,0v21.528c1.324-0.107,2.677-0.473,4.055-1.096c1.271-0.566,2.271-1.215,3-1.943L97.419,56.973z
		 M87.81,50.161c0,2.243-1.067,4.001-3.203,5.271l-3.243,1.945l-0.404-0.486c1.297-0.781,1.945-1.867,1.945-3.242v-11.84
		l-1.865,1.014l-0.283-0.689l7.054-3.729V50.161z"/>
	<path d="M114.729,44.038l-1.054,0.975v17.474c0,2.135-0.776,3.885-2.331,5.252c-1.555,1.363-3.454,2.047-5.696,2.047
		c-0.893,0-1.717-0.137-2.473-0.406l-0.081-0.203c3.432,0,5.148-2.473,5.148-7.42v-16.46l-2.757-2.311l-0.73,0.648v14.515
		l2.271,1.541l-3.852,3.73l-4.743-3.65v-0.08l0.932-0.811V33.378c0-1.162-0.189-2.163-0.567-3l0.081-0.041
		c0.811,0.54,1.283,1.364,1.419,2.473h0.081c1.026-1.973,2.838-3.162,5.433-3.567l0.122,0.121c-0.785,1.027-1.177,2.23-1.177,3.608
		v9.933l3.974-3.688l6,4.743V44.038z"/>
	<path d="M131.31,46.674l-8.067,5.475v4.986l4.5,2.473l2.23-2.148l0.527,0.486l-5.798,5.434l-7.622-4.137v-0.08l0.771-0.854v-13.46
		c2.974-1.404,6.121-3.269,9.447-5.594L131.31,46.674z M126.567,49.106l-3.122-6.648l-0.203,0.081v8.839L126.567,49.106z"/>
	<path d="M165.812,58.188c-2.594,1.273-5.244,3.365-7.947,6.285c-2-1.756-4.488-2.633-7.459-2.633c-4.812,0-7.218,1.174-7.218,3.525
		c0,0.918,0.387,1.682,1.157,2.289c0.77,0.609,1.614,0.914,2.533,0.914c1.026,0,1.824-0.256,2.392-0.771l-0.203,0.893
		c-0.703,0.324-1.54,0.486-2.513,0.486c-1.488,0-2.73-0.418-3.73-1.258c-1.108-0.945-1.662-2.242-1.662-3.891
		c0-2.24,1.067-4.014,3.203-5.311c2.027-1.244,4.676-1.865,7.945-1.865V36.459c-1.408,0.243-2.738,0.365-3.987,0.365
		c-2.793,0-4.8-0.487-6.021-1.46c-1.219-0.973-1.83-2.487-1.83-4.541c0-0.162,0.067-0.674,0.203-1.54l0.242-0.041
		c0.299,1.027,0.812,1.758,1.542,2.189c0.918,0.514,2.405,0.77,4.46,0.77c1.161,0,3.007-0.242,5.534-0.729
		c2.526-0.486,4.343-0.73,5.452-0.73c5.27,0,7.906,2.905,7.906,8.717V58.188L165.812,58.188z M151.5,37.876
		c-0.862,0.704-1.297,1.799-1.297,3.284v9.487c0,3.353-2.311,5.771-6.933,7.257l-0.405-0.404c1.433-0.623,2.148-1.961,2.148-4.016
		v-4.054h-0.892c-1.434,0-2.285,0.581-2.554,1.743h-0.162c-0.405-0.541-0.609-1.242-0.609-2.108c0-2.406,1.203-3.608,3.609-3.608
		h0.607V43.43c0-3.08,2.067-5.027,6.203-5.838L151.5,37.876z M160.014,44.688v-4.581c0-1.541-0.254-2.643-0.766-3.305
		c-0.51-0.661-1.398-0.993-2.66-0.993c-0.564,0-1.773,0.176-3.627,0.526v8.353c1.262,0.324,2.418,0.485,3.467,0.485
		C157.824,45.174,159.02,45.012,160.014,44.688z M160.014,49.188v-3.893c-1.047,0.324-2.242,0.487-3.586,0.487
		c-1.104,0-2.258-0.163-3.467-0.487v3.893c1.047-0.324,2.203-0.486,3.467-0.486C157.742,48.701,158.938,48.864,160.014,49.188z
		 M160.014,59.162v-9.407c-1.154-0.323-2.348-0.486-3.586-0.486c-1.129,0-2.285,0.162-3.467,0.486v7.097
		c3.162,0.322,5.5,1.094,7.012,2.311H160.014z"/>
	<path d="M187.625,58.719l-4.623,4.699l-4.703-3.77l-4.906,3.77c-1.217-0.375-2.281-1.172-3.201-2.383
		c-1.057-1.375-1.582-2.883-1.582-4.525c0-1.777,0.486-3.312,1.457-4.607c0.893-1.211,2.098-2.06,3.611-2.546
		c-1.002-1.023-1.879-2.223-2.637-3.597c-0.838-1.562-1.258-2.922-1.258-4.081c0-0.699,0.207-1.286,0.609-1.758
		c0.404-0.471,0.916-0.706,1.541-0.706c1.271,0,1.904,0.675,1.904,2.026c0,0.955-0.674,1.525-2.027,1.711v0.039
		c0.406,0.239,0.945,0.358,1.623,0.358c0.758,0,1.674-0.473,2.756-1.419c0.918-0.784,1.715-1.688,2.393-2.716l5.959,3.851v0.082
		l-0.852,0.77v13.905l2.271,1.744l1.215-1.297L187.625,58.719z M178.299,48.54v-3.527l-2.594-1.865
		c-0.648,0.541-1.408,0.811-2.27,0.811c-1.139,0-1.961-0.229-2.475-0.689l-0.08,0.082c0.215,1.599,1.418,3.533,3.605,5.798
		C176.162,48.742,177.432,48.54,178.299,48.54z M178.299,58.836v-9.729c-1.137,0-2.129,0.603-2.98,1.806
		c-0.85,1.201-1.275,2.52-1.275,3.953c0,2.758,0.85,4.541,2.553,5.352L178.299,58.836z"/>
	<path d="M198.893,58.432l-4.904,4.947l-5.148-3.936v-0.08l1.014-0.77V45.012l-1.744-1.825l-1.379,1.299l-0.404-0.447l4.945-4.823
		l4.945,4.621v0.081l-0.971,0.771v13.055l1.865,1.541l1.297-1.338L198.893,58.432z M196.906,32.971
		c-0.891,0.812-2.529,2.365-4.904,4.663l-3.326-3.162l-1.174,1.095l-0.406-0.402c2.107-1.93,3.73-3.485,4.863-4.666l3.406,3.122
		l1.137-1.054L196.906,32.971z"/>
	<path d="M209.475,58.432l-4.947,4.947l-5.107-3.893v-0.082l0.932-0.648V33.498c0-1.136-0.188-2.123-0.566-2.96l0.08-0.041
		c0.756,0.596,1.232,1.42,1.42,2.474h0.08c1.137-1.973,2.973-3.162,5.516-3.567l0.039,0.122c-0.783,1.135-1.176,2.338-1.176,3.606
		v24.651l1.906,1.5l1.256-1.338L209.475,58.432z"/>
	<path d="M228.975,62.293c0,1.109-0.393,2.066-1.176,2.875l-5.35,5.59c-1.732-1.65-3.568-2.475-5.516-2.475
		c-2.488,0-4.553,0.756-6.201,2.27l-0.164-0.119c0.459-1.732,1.377-3.156,2.758-4.279c1.377-1.123,2.904-1.682,4.58-1.682
		c2.971,0,5.379,0.854,7.217,2.553c0.594-0.514,0.891-1.066,0.891-1.66c0-1-0.58-1.703-1.742-2.109
		c-2-0.703-3.107-1.891-3.324-3.568l-4.096,3.691l-5.961-4.176v-0.082l0.975-0.771v-13.5L210,43.31l-1.338,1.337l-0.445-0.485
		l4.906-4.906l4.176,3.203v15.325l2.715,1.867l0.73-0.648V44.476l-2.23-1.497l3.812-3.724l4.826,3.646v0.081l-0.975,0.769v13.93
		c0,0.809,0.469,1.592,1.398,2.35C228.508,60.783,228.975,61.539,228.975,62.293z"/>
</g>
</svg>
