<?xml version="1.0" encoding="utf-8"?>
<!-- Generator: Adobe Illustrator 16.0.4, SVG Export Plug-In . SVG Version: 6.00 Build 0)  -->
<!DOCTYPE svg PUBLIC "-//W3C//DTD SVG 1.1//EN" "http://www.w3.org/Graphics/SVG/1.1/DTD/svg11.dtd">
<svg version="1.1"
	 id="svg2" xmlns:rdf="http://www.w3.org/1999/02/22-rdf-syntax-ns#" xmlns:cc="http://creativecommons.org/ns#" xmlns:dc="http://purl.org/dc/elements/1.1/" xmlns:svg="http://www.w3.org/2000/svg" xmlns:inkscape="http://www.inkscape.org/namespaces/inkscape" xmlns:sodipodi="http://sodipodi.sourceforge.net/DTD/sodipodi-0.dtd" xmlns:ns1="http://sozi.baierouge.fr"
	 xmlns="http://www.w3.org/2000/svg" xmlns:xlink="http://www.w3.org/1999/xlink" x="0px" y="0px" width="800px" height="800px"
	 viewBox="0 0 800 800" enable-background="new 0 0 800 800" xml:space="preserve">
<g id="layer1" transform="translate(0 -988.36)">
	<g id="g2945">
		<path id="rect3663" fill-opacity="0.1373" d="M137.5,1025.86h598v750h-598V1025.86z"/>
		<path id="rect2818" fill="#FEFDE6" d="M150,1038.36v725h525v-725H150z M187.5,1100.86h25v25h-25V1100.86z M187.5,1163.36h25v25
			h-25V1163.36z M187.5,1225.86h25v25h-25V1225.86z M187.5,1288.36h25v25h-25V1288.36z M187.5,1350.86h25v25h-25V1350.86z
			 M187.5,1413.36h25v25h-25V1413.36z M187.5,1475.86h25v25h-25V1475.86z M187.5,1538.36h25v25h-25V1538.36z M187.5,1600.86h25v25
			h-25V1600.86z M187.5,1663.36h25v25h-25V1663.36z"/>
		<path id="rect2818_1_" display="none" fill="#FEFDE6" d="M150,1751.36v24.5h587.5v-24.5H150z"/>
		<path id="rect2818_2_" fill="#FEFDE6" d="M649.5,1038.36v725h71v-725H649.5z"/>
		<path id="path3694" fill="#6DC5DD" d="M225,1113.36v12.5h450v-12.5H225z M225,1175.86v12.5h450v-12.5H225z M225,1238.36v12.5h450
			v-12.5H225z M225,1300.86v12.5h450v-12.5H225z M225,1363.36v12.5h450v-12.5H225z M225,1425.86v12.5h450v-12.5H225z M225,1488.36
			v12.5h450v-12.5H225z M225,1550.86v12.5h450v-12.5H225z M225,1613.36v12.5h450v-12.5H225z M225,1675.86v12.5h450v-12.5H225z"/>
		<path id="rect3691" fill="#F77462" d="M262.5,1038.36H275v725h-12.5V1038.36z"/>
		<path id="rect2885" display="none" opacity="0.7" fill="#BEBEBE" d="M150,1751.36h587.5v25H150V1751.36z"/>
		<rect id="rect3661" x="262.5" y="1751.36" display="none" fill="#9F482D" width="12.5" height="25"/>
		<g id="g2909" transform="translate(1,1)">
			<rect id="rect2889" x="99" y="1099.86" fill="#404040" width="100" height="25"/>
			<rect id="rect2891" x="99" y="1162.86" fill="#404040" width="100" height="25"/>
			<rect id="rect2893" x="99" y="1225.36" fill="#404040" width="100" height="25"/>
			<rect id="rect2895" x="99" y="1287.86" fill="#404040" width="100" height="25"/>
			<rect id="rect2897" x="99" y="1350.36" fill="#404040" width="100" height="25"/>
			<rect id="rect2899" x="99" y="1412.86" fill="#404040" width="100" height="25"/>
			<rect id="rect2901" x="99" y="1475.36" fill="#404040" width="100" height="25"/>
			<rect id="rect2903" x="99" y="1537.86" fill="#404040" width="100" height="25"/>
			<rect id="rect2905" x="99" y="1600.36" fill="#404040" width="100" height="25"/>
			<rect id="rect2907" x="99" y="1662.86" fill="#404040" width="100" height="25"/>
		</g>
	</g>
	<g id="layer1_1_" transform="translate(0 -988.36)">
		<g id="g3925">
			<path id="path3913" display="none" fill="#737373" d="M251.924,2010.752v641.968h494.631v-641.968H251.924z"/>
			<path id="path3724" display="none" fill="#F2F2F2" d="M262.448,2021.277v620.919h473.583v-620.919H262.448z"/>
			<g id="g3896" transform="translate(-7,3)">
				<path id="path3886" fill="#F9D97B" d="M405.361,2411.488l-52.251,104.873l105.24-52.621L405.361,2411.488z"/>
				<g>
					<path id="path3888" fill="#00796B" d="M405.729,2411.54l157.861-157.861l52.62,52.62L458.35,2464.161L405.729,2411.54z"/>
				</g>
				<path id="path3890" fill="#F77462" d="M584.639,2232.632l52.62,52.62l31.572-31.572l-52.62-52.62L584.639,2232.632z"/>
				<path id="path3892" fill="#CCCCCC" d="M563.591,2253.259l21.048-21.048l52.62,52.621l-21.048,21.048L563.591,2253.259z"/>
				<path id="path3894" fill="#737373" d="M353.404,2515.318l10.229-20.006l10.524,10.523l-20.755,9.482H353.404z"/>
			</g>
			<path id="path3903" display="none" opacity="0.2" d="M346.109,2519.361l257.378,257.287L800,2776.652v-382.203l-138.169-138.19
				L451.35,2466.74L346.109,2519.361z"/>
			<path id="To_edge_of_folio_1_" opacity="0.2" d="M735.498,2329.937l-73.667-73.678L451.35,2466.74l-105.24,52.621
				l244.944,244.858l144.446,0.001"/>
			<path display="none" opacity="0.2" d="M503.995,2677.156l99.492,99.491L800,2776.652v-382.203h-64.5v282.703L503.995,2677.156z"
				/>
			<path id="path3903_4_" display="none" opacity="0.2" d="M799.996,2394.448l-64.496-64.522v64.522"/>
			<path id="path3903_3_" opacity="0.2" d="M805.5,2466.74"/>
		</g>
	</g>
</g>
</svg>
